<svg width="18.000000" height="21.000000" viewBox="0 0 18 21" fill="none" xmlns="http://www.w3.org/2000/svg" xmlns:xlink="http://www.w3.org/1999/xlink">
	
	<defs/>
	<path id="Vector" d="M6.33 18.7C6.33 18.97 6.1 19.2 5.83 19.2L1.5 19.2C1.22 19.2 1 18.97 1 18.7L1 7.08C1 6.94 1.06 6.8 1.17 6.7L8.67 0.27C8.86 0.11 9.13 0.11 9.32 0.27L16.82 6.7C16.93 6.8 17 6.94 17 7.08L17 18.7C17 18.97 16.77 19.2 16.5 19.2L12.16 19.2C11.89 19.2 11.66 18.97 11.66 18.7L11.66 12.84C11.66 12.56 11.44 12.34 11.16 12.34L6.83 12.34C6.55 12.34 6.33 12.56 6.33 12.84L6.33 18.7Z" stroke="#2F3035" stroke-opacity="1.000000" stroke-width="2.000000" stroke-linejoin="round"/>
</svg>
