<svg width="80.000000" height="76.000000" viewBox="0 0 80 76" fill="none" xmlns="http://www.w3.org/2000/svg" xmlns:xlink="http://www.w3.org/1999/xlink">
	
	<defs/>
	<path id="DRIVE MOTO" d="M0.9 70C0.833333 70 0.8 69.9667 0.8 69.9L0.84 56.16C0.84 56.1067 0.866667 56.08 0.92 56.08L4.66 56.06C5.39333 56.0467 6.06 56.22 6.66 56.58C7.27333 56.94 7.76 57.4267 8.12 58.04C8.48 58.64 8.66 59.3067 8.66 60.04L8.66 65.78C8.66 66.5533 8.47333 67.26 8.1 67.9C7.72667 68.5267 7.22667 69.0267 6.6 69.4C5.97333 69.7733 5.26667 69.9667 4.48 69.98L0.9 70ZM3.24 67.54L4.48 67.54C4.97333 67.54 5.38667 67.3667 5.72 67.02C6.06667 66.6733 6.24 66.26 6.24 65.78L6.24 60.02C6.24 59.5933 6.08 59.2267 5.76 58.92C5.45333 58.6 5.08667 58.4467 4.66 58.46L3.26 58.48L3.24 67.54ZM10.3136 70C10.2603 70 10.2336 69.9667 10.2336 69.9L10.2736 56.16C10.2736 56.1067 10.3003 56.08 10.3536 56.08L14.3936 56.08C15.1136 56.08 15.7736 56.26 16.3736 56.62C16.9869 56.9667 17.4736 57.44 17.8336 58.04C18.1936 58.6267 18.3736 59.2933 18.3736 60.04C18.3736 60.5333 18.3003 60.98 18.1536 61.38C18.0069 61.7667 17.8336 62.1 17.6336 62.38C17.4336 62.6467 17.2536 62.8467 17.0936 62.98C17.8136 63.78 18.1736 64.72 18.1736 65.8L18.1936 69.9C18.1936 69.9667 18.1603 70 18.0936 70L15.8336 70C15.7803 70 15.7536 69.98 15.7536 69.94L15.7536 65.8C15.7536 65.32 15.5803 64.9067 15.2336 64.56C14.9003 64.2 14.4869 64.02 13.9936 64.02L12.6736 64.02L12.6536 69.9C12.6536 69.9667 12.6269 70 12.5736 70L10.3136 70ZM12.6736 61.62L14.3936 61.62C14.8069 61.62 15.1736 61.4667 15.4936 61.16C15.8136 60.8533 15.9736 60.48 15.9736 60.04C15.9736 59.6133 15.8136 59.2467 15.4936 58.94C15.1869 58.6333 14.8203 58.48 14.3936 58.48L12.6736 58.48L12.6736 61.62ZM19.982 70C19.9154 70 19.882 69.9667 19.882 69.9L19.902 56.16C19.902 56.1067 19.9287 56.08 19.982 56.08L22.222 56.08C22.2754 56.08 22.302 56.1067 22.302 56.16L22.322 69.9C22.322 69.9667 22.2954 70 22.242 70L19.982 70ZM26.3213 70C26.2679 70 26.2346 69.9667 26.2213 69.9L23.4613 56.16C23.4479 56.1067 23.4746 56.08 23.5413 56.08L25.8013 56.08C25.8546 56.08 25.8879 56.1067 25.9013 56.16L27.5413 65.32L29.1413 56.16C29.1546 56.1067 29.1879 56.08 29.2412 56.08L31.4813 56.08C31.5479 56.08 31.5746 56.1067 31.5613 56.16L28.8413 69.9C28.8279 69.9667 28.7946 70 28.7412 70L26.3213 70ZM32.8136 70C32.7603 70 32.7336 69.9667 32.7336 69.9L32.7536 56.16C32.7536 56.1067 32.7803 56.08 32.8336 56.08L39.2536 56.08C39.3069 56.08 39.3336 56.1133 39.3336 56.18L39.3336 58.42C39.3336 58.4733 39.3069 58.5 39.2536 58.5L35.1536 58.5L35.1536 61.62L39.2536 61.62C39.3069 61.62 39.3336 61.6467 39.3336 61.7L39.3536 63.96C39.3536 64.0133 39.3269 64.04 39.2736 64.04L35.1536 64.04L35.1536 67.54L39.2736 67.54C39.3269 67.54 39.3536 67.5733 39.3536 67.64L39.3536 69.92C39.3536 69.9733 39.3269 70 39.2736 70L32.8136 70ZM44.1808 70C44.1274 70 44.1008 69.9667 44.1008 69.9L44.1408 56.16C44.1408 56.1067 44.1674 56.08 44.2208 56.08L46.6608 56.08C46.7141 56.08 46.7608 56.1067 46.8008 56.16L48.6208 58.8L50.4408 56.16C50.4808 56.1067 50.5274 56.08 50.5808 56.08L53.0408 56.08C53.0941 56.08 53.1208 56.1067 53.1208 56.16L53.1608 69.9C53.1608 69.9667 53.1341 70 53.0808 70L50.8208 70C50.7674 70 50.7408 69.9667 50.7408 69.9L50.7208 59.7L48.6208 62.74L46.5408 59.7L46.5208 69.9C46.5208 69.9667 46.4941 70 46.4408 70L44.1808 70ZM58.543 70.2C57.823 70.2 57.163 70.02 56.563 69.66C55.9763 69.2867 55.503 68.8 55.143 68.2C54.783 67.5867 54.603 66.9133 54.603 66.18L54.623 59.84C54.623 59.1067 54.7963 58.44 55.143 57.84C55.503 57.24 55.983 56.76 56.583 56.4C57.183 56.04 57.8363 55.86 58.543 55.86C59.263 55.86 59.9163 56.04 60.503 56.4C61.0896 56.76 61.5563 57.24 61.903 57.84C62.263 58.44 62.443 59.1067 62.443 59.84L62.463 66.18C62.463 66.9133 62.283 67.5867 61.923 68.2C61.5763 68.8 61.103 69.2867 60.503 69.66C59.9163 70.02 59.263 70.2 58.543 70.2ZM58.543 67.78C58.943 67.78 59.2896 67.62 59.583 67.3C59.8896 66.9667 60.043 66.5933 60.043 66.18L60.023 59.84C60.023 59.4 59.883 59.0267 59.603 58.72C59.323 58.4133 58.9696 58.26 58.543 58.26C58.1296 58.26 57.7763 58.4133 57.483 58.72C57.1896 59.0133 57.043 59.3867 57.043 59.84L57.043 66.18C57.043 66.62 57.1896 67 57.483 67.32C57.7763 67.6267 58.1296 67.78 58.543 67.78ZM65.7297 70C65.6764 70 65.6497 69.9667 65.6497 69.9L65.6497 58.5L63.0497 58.5C62.983 58.5 62.9497 58.4667 62.9497 58.4L62.9697 56.16C62.9697 56.1067 62.9964 56.08 63.0497 56.08L70.6497 56.08C70.7164 56.08 70.7497 56.1067 70.7497 56.16L70.7497 58.4C70.7497 58.4667 70.723 58.5 70.6697 58.5L68.0497 58.5L68.0697 69.9C68.0697 69.9667 68.043 70 67.9897 70L65.7297 70ZM74.9883 70.2C74.2683 70.2 73.6083 70.02 73.0083 69.66C72.4216 69.2867 71.9483 68.8 71.5883 68.2C71.2283 67.5867 71.0483 66.9133 71.0483 66.18L71.0683 59.84C71.0683 59.1067 71.2416 58.44 71.5883 57.84C71.9483 57.24 72.4283 56.76 73.0283 56.4C73.6283 56.04 74.2816 55.86 74.9883 55.86C75.7083 55.86 76.3616 56.04 76.9483 56.4C77.535 56.76 78.0016 57.24 78.3483 57.84C78.7083 58.44 78.8883 59.1067 78.8883 59.84L78.9083 66.18C78.9083 66.9133 78.7283 67.5867 78.3683 68.2C78.0216 68.8 77.5483 69.2867 76.9483 69.66C76.3616 70.02 75.7083 70.2 74.9883 70.2ZM74.9883 67.78C75.3883 67.78 75.7349 67.62 76.0283 67.3C76.3349 66.9667 76.4883 66.5933 76.4883 66.18L76.4683 59.84C76.4683 59.4 76.3283 59.0267 76.0483 58.72C75.7683 58.4133 75.4149 58.26 74.9883 58.26C74.575 58.26 74.2216 58.4133 73.9283 58.72C73.6349 59.0133 73.4883 59.3867 73.4883 59.84L73.4883 66.18C73.4883 66.62 73.6349 67 73.9283 67.32C74.2216 67.6267 74.575 67.78 74.9883 67.78Z" fill="#2F3035" fill-opacity="1.000000" fill-rule="evenodd"/>
	<path id="Vector" d="M59.0439 7.95593C58.3408 7.25256 57.2363 7.14893 56.4141 7.70923C53.3164 9.82068 37.7783 20.4385 36.1084 22.1083C33.6865 24.53 33.6865 28.4702 36.1084 30.892C37.3188 32.1027 38.9097 32.7081 40.5 32.7081C42.0903 32.7081 43.6812 32.1027 44.8921 30.892C46.5615 29.222 57.1792 13.684 59.291 10.5861C59.8511 9.76392 59.7476 8.65955 59.0439 7.95593ZM41.9639 27.964C41.1567 28.7714 39.8433 28.7714 39.0361 27.964C38.229 27.1569 38.229 25.8438 39.0356 25.0366C39.6846 24.3954 44.0962 21.2491 49.5239 17.4763C45.751 22.9041 42.605 27.3154 41.9639 27.964Z" fill="#2F3035" fill-opacity="1.000000" fill-rule="nonzero"/>
	<path id="Vector" d="M23.5474 36.1294L20.9917 37.3762C19.1216 34.0386 18.1406 30.3135 18.1406 26.5C18.1406 23.7061 18.6558 21.03 19.5962 18.5621L22.5244 19.9668C22.8135 20.1053 23.1182 20.1709 23.4185 20.1709C24.1899 20.1709 24.9307 19.7378 25.2866 18.9955C25.7812 17.9646 25.3462 16.7279 24.3154 16.2334L21.4238 14.8466C25.0176 8.98547 31.2354 4.89917 38.4297 4.2356L38.4297 7.34949C38.4297 8.49292 39.3564 9.4198 40.5 9.4198C41.6436 9.4198 42.5703 8.49292 42.5703 7.34949L42.5703 4.23413C45.0371 4.45862 47.4238 5.08679 49.6895 6.1095C50.731 6.57996 51.9575 6.11633 52.4282 5.07446C52.8984 4.03223 52.4351 2.80615 51.3931 2.33557C47.9595 0.785889 44.2949 0 40.5 0C33.4214 0 26.7671 2.75647 21.7617 7.7616C16.7563 12.7668 14 19.4216 14 26.5C14 31.7306 15.5527 36.8179 18.4897 41.2112C18.8853 41.8027 19.5396 42.131 20.2124 42.131C20.5181 42.131 20.8276 42.0631 21.1187 41.9213L25.3628 39.851C26.3906 39.3496 26.8174 38.1102 26.3159 37.0825C25.8145 36.0549 24.5752 35.6283 23.5474 36.1294Z" fill="#2F3035" fill-opacity="1.000000" fill-rule="nonzero"/>
	<path id="Vector" d="M64.6646 15.6073C64.1938 14.5652 62.9683 14.1014 61.9253 14.5721C60.8833 15.0426 60.4199 16.2688 60.8906 17.3109C62.1973 20.205 62.8594 23.2966 62.8594 26.5C62.8594 30.3191 61.8755 34.0504 60 37.3917L57.3315 36.1211C56.2993 35.6296 55.064 36.0677 54.5723 37.1002C54.0806 38.1324 54.519 39.3679 55.5513 39.8596L59.8989 41.9299C60.1851 42.066 60.4883 42.1311 60.7881 42.1311C61.4609 42.1311 62.1152 41.8025 62.5103 41.2113C65.4478 36.8179 67 31.7307 67 26.5C67 22.7053 66.2144 19.0404 64.6646 15.6073Z" fill="#2F3035" fill-opacity="1.000000" fill-rule="nonzero"/>
</svg>
