<svg width="16.000000" height="16.000000" viewBox="0 0 16 16" fill="none" xmlns="http://www.w3.org/2000/svg" xmlns:xlink="http://www.w3.org/1999/xlink">
	
	<defs/>
	<path id="%" d="M5.23 1.08Q5.18 1.03 5.14 0.97Q4.82 0.6 4.41 0.37Q3.7 -0.05 2.75 -0.05Q1.79 -0.05 1.08 0.37Q0.68 0.6 0.36 0.97Q0.33 1.01 0.29 1.05Q-0.52 2.05 -0.52 3.72Q-0.52 5.38 0.29 6.39Q0.32 6.44 0.36 6.48Q0.68 6.85 1.08 7.09Q1.79 7.5 2.75 7.5Q3.7 7.5 4.41 7.09Q4.82 6.85 5.14 6.48Q5.19 6.42 5.23 6.37Q6.03 5.36 6.03 3.72Q6.03 2.08 5.23 1.08ZM0.72 14.99L2.95 14.99L8.17 7.83L13.75 0.19L11.54 0.19L6.45 7.15L0.72 14.99ZM3.14 5.82Q2.96 5.89 2.75 5.89Q2.55 5.89 2.39 5.83Q2.07 5.7 1.86 5.32Q1.54 4.74 1.54 3.72Q1.54 2.7 1.86 2.12Q2.07 1.73 2.4 1.6Q2.56 1.54 2.75 1.54Q2.96 1.54 3.13 1.61Q3.44 1.75 3.64 2.12Q3.97 2.7 3.97 3.72Q3.97 4.74 3.64 5.32Q3.44 5.68 3.14 5.82ZM14.2 8.76Q14.16 8.7 14.11 8.64Q13.79 8.27 13.39 8.04Q12.68 7.62 11.72 7.62Q10.76 7.62 10.05 8.04Q9.65 8.27 9.33 8.64Q9.29 8.68 9.26 8.73Q8.45 9.74 8.45 11.4Q8.45 13.06 9.26 14.07Q9.29 14.12 9.33 14.16Q9.64 14.52 10.03 14.75Q10.75 15.17 11.72 15.17Q12.69 15.17 13.41 14.75Q13.8 14.52 14.11 14.16Q14.16 14.1 14.2 14.05Q15 13.04 15 11.4Q15 9.76 14.2 8.76ZM11.37 13.51Q11.05 13.38 10.83 12.99Q10.51 12.41 10.51 11.39Q10.51 10.38 10.83 9.79Q11.05 9.4 11.37 9.27Q11.53 9.21 11.72 9.21Q11.91 9.21 12.07 9.27Q12.39 9.4 12.61 9.79Q12.94 10.38 12.94 11.39Q12.94 12.41 12.61 12.99Q12.39 13.38 12.07 13.51Q11.91 13.58 11.72 13.58Q11.53 13.58 11.37 13.51Z" fill="#2F3035" fill-opacity="1.000000" fill-rule="evenodd"/>
</svg>
