<svg width="30.000000" height="22.500000" viewBox="0 0 30 22.5" fill="none" xmlns="http://www.w3.org/2000/svg" xmlns:xlink="http://www.w3.org/1999/xlink">
	
	<defs/>
	<path id="Vector" d="M30 0L29.0713 2.5L26.6602 2.5L22.3174 17.5L5.76855 17.5L0 3.75L21.0151 3.75L20.3101 6.25L3.75977 6.25L7.43115 15L20.4663 15L24.7563 0L30 0ZM10.625 18.75C9.58984 18.75 8.75 19.59 8.75 20.625C8.75 21.6613 9.58984 22.5 10.625 22.5C11.6602 22.5 12.5 21.6613 12.5 20.625C12.5 19.59 11.6602 18.75 10.625 18.75ZM19.25 10L16.875 18.75C15.8398 18.75 15 19.5887 15 20.625C15 21.6613 15.8398 22.5 16.875 22.5C17.9102 22.5 18.75 21.6613 18.75 20.625C18.75 19.59 17.9102 18.75 16.875 18.75L19.25 10Z" fill="#2F3035" fill-opacity="1.000000" fill-rule="nonzero"/>
</svg>
