<svg width="24.000000" height="21.999878" viewBox="0 0 24 21.9999" fill="none" xmlns="http://www.w3.org/2000/svg" xmlns:xlink="http://www.w3.org/1999/xlink">
	
	<defs/>
	<path id="Vector" d="M12 8.22888C12.2339 7.10889 13.5469 1.99988 17.3818 1.99988C19.6021 1.99988 22 3.5509 22 7.00293C22 10.9099 18.373 15.4729 12 19.632C5.62695 15.4729 2 10.9099 2 7.00293C2 3.51892 4.36914 1.99792 6.57715 1.99792C10.5 1.99792 11.7222 7.1239 12 8.22888ZM0 7.00293C0 11.0709 3.06006 16.4839 12 21.9999C20.9399 16.4839 24 11.0709 24 7.00293C24 -0.959106 14.3521 -2.02502 12 3.26587C9.66211 -1.99609 0 -1.00403 0 7.00293Z" fill="#2F3035" fill-opacity="1.000000" fill-rule="nonzero"/>
</svg>
