<svg width="24.062988" height="30.000000" viewBox="0 0 24.063 30" fill="none" xmlns="http://www.w3.org/2000/svg" xmlns:xlink="http://www.w3.org/1999/xlink">
	
	<defs/>
	<path id="Vector" d="M12.0254 0C5.396 0 0 5.39624 0 12.0251C0 12.7799 0.0693359 13.5409 0.213867 14.283C0.220215 14.327 0.245117 14.4591 0.29541 14.6855C0.478027 15.4968 0.748535 16.2957 1.10059 17.0566C2.396 20.1069 5.24512 24.7925 11.4971 29.8113C11.6543 29.9371 11.8428 30 12.0312 30C12.2202 30 12.4087 29.9371 12.5659 29.8113C18.8115 24.7925 21.6665 20.1069 22.9624 17.0566C23.3145 16.2957 23.585 15.5032 23.7671 14.6855C23.8174 14.4591 23.8428 14.327 23.8491 14.283C23.9873 13.5409 24.063 12.7799 24.063 12.0251C24.0503 5.39624 18.6543 0 12.0254 0ZM22.1636 13.9874C22.1636 14 22.1572 14.0126 22.1572 14.0251C22.1509 14.0566 22.1318 14.151 22.1006 14.2957C22.1006 14.3019 22.1006 14.3019 22.1006 14.3082C21.9434 15.0126 21.7104 15.6981 21.4023 16.3585C21.396 16.3647 21.396 16.3773 21.3901 16.3837C20.2139 19.1698 17.6353 23.4214 12.0254 28.0566C6.41504 23.4214 3.83643 19.1698 2.66016 16.3837C2.6543 16.3773 2.6543 16.3647 2.64795 16.3585C2.3457 15.7043 2.11328 15.0126 1.94971 14.3082C1.94971 14.3019 1.94971 14.3019 1.94971 14.2957C1.91211 14.151 1.89941 14.0566 1.89307 14.0251C1.89307 14.0126 1.88672 14 1.88672 13.9811C1.76123 13.3334 1.69824 12.6792 1.69824 12.0189C1.69824 6.32703 6.3335 1.69177 12.0254 1.69177C17.7168 1.69177 22.3521 6.32703 22.3521 12.0189C22.3521 12.6855 22.2891 13.3459 22.1636 13.9874Z" fill="#000000" fill-opacity="1.000000" fill-rule="nonzero"/>
	<path id="Vector" d="M12.0249 4.52197C7.81738 4.52197 4.38965 7.94971 4.38965 12.1572C4.38965 16.3647 7.81738 19.7924 12.0249 19.7924C16.2324 19.7924 19.6602 16.3647 19.6602 12.1572C19.6602 7.94971 16.2324 4.52197 12.0249 4.52197ZM12.0249 18.0944C8.74805 18.0944 6.08789 15.4276 6.08789 12.1572C6.08789 8.88672 8.75439 6.22009 12.0249 6.22009C15.2954 6.22009 17.9619 8.88672 17.9619 12.1572C17.9619 15.4276 15.3018 18.0944 12.0249 18.0944Z" fill="#000000" fill-opacity="1.000000" fill-rule="nonzero"/>
</svg>
